<mxfile host="app.diagrams.net" modified="2023-09-14T14:24:59.430Z" agent="Mozilla/5.0 (Windows NT 10.0; Win64; x64) AppleWebKit/537.36 (KHTML, like Gecko) Chrome/116.0.0.0 Safari/537.36" version="21.7.5" etag="nV8_hZ8Y_mubiNKn_syp" type="github">
  <diagram name="Page-1" id="3SdiVgpNQmzeXbNPI_lX">
    <mxGraphModel>
      <root>
        <mxCell id="0" />
        <mxCell id="1" parent="0" />
      </root>
    </mxGraphModel>
  </diagram>
</mxfile>
